<?xml version="1.0" encoding="UTF-8"?>
<svg width="285px" height="64px" viewBox="0 0 285 64" version="1.1" xmlns="http://www.w3.org/2000/svg" xmlns:xlink="http://www.w3.org/1999/xlink">
    <!-- Generator: Sketch 59.1 (86144) - https://sketch.com -->
    <title>Oranjebitter logo</title>
    <desc>Created with Sketch.</desc>
    <g id="Homepage" stroke="none" stroke-width="1" fill="none" fill-rule="evenodd">
        <g id="01-home" transform="translate(-107.000000, -99.000000)" fill="#FFFFFF">
            <g id="Oranjebitter-logo" transform="translate(107.000000, 99.000000)">
                <path d="M106.034488,13.0873887 C106.173287,12.0953887 112.017267,12.3642622 112.772702,14.9356645 C113.110261,16.4404002 116.816741,46.2279864 116.833397,46.4744232 C117.769455,60.0678025 112.712001,63.7798025 107.873663,63.9078025 C101.124345,64.0861933 89.3582866,55.6621013 91.7870788,51.2729519 C93.0784619,48.9391588 94.0537542,52.4849059 100.643546,56.0339634 C107.233709,59.5830209 111.34215,55.6643082 111.730046,52.7228829 C112.591709,46.1948829 107.337345,19.4531818 106.503813,16.2072048 C106.391663,15.7684002 105.908644,13.982653 106.034488,13.0873887 Z M63.9251827,13.5406117 C73.3675658,6.56497948 76.5662282,24.5092553 77.2050723,31.0957381 C77.5278256,34.7128416 78.5997217,45.8723818 78.5997217,52.4253933 C78.5997217,55.9707726 73.0696113,58.4961979 73.0292671,54.1666347 C72.9711568,47.9303128 72.1376243,37.7572553 72.065449,36.8950944 L72.065449,36.8950944 L62.9709879,37.6454393 C62.9006632,38.1629565 62.557923,50.3457611 61.5274814,50.9000599 C60.9826503,51.1932094 59.0368775,50.9191864 57.9146438,50.1133013 C57.1569879,49.5693013 56.8719879,48.3282898 56.8438581,48.0767036 L56.8438581,48.0767036 L56.8553321,47.842037 C51.8482152,46.0647496 42.6253191,42.0735772 41.9376178,41.4343128 C42.3580853,43.9431864 42.3580853,43.9431864 42.9961892,46.1714163 C43.7390399,48.7093473 38.121949,49.1275542 37.3517087,47.1115542 C36.232436,44.2602438 30.4658126,23.1689335 30.3495918,22.5896232 C29.9087671,20.386037 33.4287022,20.035876 34.245949,20.3183588 C34.8618451,16.5497151 49.2728516,16.4195082 54.2122347,23.1075082 C60.2542347,31.2881059 44.5647996,38.2836002 44.5647996,38.2836002 C45.3983321,38.7676461 52.525923,41.0024967 57.0796308,42.4068186 C57.1469944,40.7167036 57.2184295,39.298037 57.359449,37.9967036 C56.1491243,37.9595542 55.3263256,38.0276002 55.0187477,37.4464507 C53.9572152,35.4396461 54.1226632,33.489853 57.9871892,33.091876 C58.0234619,32.8413933 59.7837996,16.5997381 63.9251827,13.5406117 Z M144.191176,13.6347358 C163.736624,4.57616109 173.023183,17.0995634 164.927332,24.5121611 C164.927332,24.5121611 161.67278,27.7371726 154.49115,31.3314714 C167.422378,31.0258163 179.557455,36.5209887 178.981163,44.8097243 C178.390436,53.3055404 149.823072,55.9935404 147.769962,54.8371266 L147.769962,54.8371266 L147.746644,54.822414 C146.558527,54.1246668 145.363748,49.5368967 144.43102,43.6591956 C136.825222,54.4634255 128.890378,51.376345 124.624261,48.5390117 C118.428287,44.4180002 117.089157,36.3245749 116.986631,33.5780921 C116.884105,30.846322 118.279124,26.7481151 122.523774,24.8472416 C132.77267,20.2576324 140.015371,23.6466898 141.085416,27.0920232 C142.846494,32.7597013 124.674968,39.340299 124.674968,39.340299 C124.947754,40.0788737 125.285683,40.7931726 125.712072,41.3794714 C133.901936,52.6405289 140.490248,41.8668278 140.490248,41.8668278 C141.855287,40.1399312 142.986404,39.4539542 143.826228,39.3833335 C142.409741,28.1013105 142.023696,14.6388737 144.191176,13.6347358 Z M255.776227,15.9841979 C263.683311,15.4530714 271.592616,16.9287496 269.903714,25.0405657 C269.012071,29.3256232 266.509993,32.3630484 262.417837,34.7590025 C259.871714,36.2721979 256.549058,37.7368416 255.430896,38.1061289 C261.475857,41.0920599 267.419402,44.0047956 270.935266,44.6506806 C276.938772,45.7533933 277.974766,43.3813473 278.911565,41.3543128 C279.751019,39.538037 280.194065,39.5442898 281.665331,39.5681979 C282.43372,39.5807036 285.337759,40.2365197 284.905818,43.7925657 C284.661162,45.8074622 281.694571,52.7900829 274.014746,51.0620829 C268.607519,49.8449795 258.80574,45.4826806 251.163298,41.8251174 C251.744772,44.2413013 252.220759,46.2367036 252.538701,47.9264507 C252.819629,49.4157381 248.06235,49.3436461 247.375019,47.9764737 C247.198097,47.3570714 246.640311,45.8148186 245.902642,43.8021289 C246.079565,45.6897611 245.746448,47.5693013 244.542045,48.9482438 C244.486526,49.0181289 244.428415,49.0861749 244.363642,49.1509105 L244.363642,49.1509105 L244.360311,49.153853 L244.32774,49.1884278 C234.617753,60.2685197 218.028162,50.977853 214.766207,46.8377151 C212.623526,44.1169795 211.908805,40.7492553 211.832928,37.6610714 C207.33474,37.5135772 209.33048,35.2463588 209.922688,34.6865427 C210.457526,34.181899 211.656376,34.2536232 211.984311,34.2837841 C212.211941,32.201945 212.633519,30.4860829 212.904454,29.5492553 C213.663961,26.9215772 216.273746,23.4589565 220.902961,22.9668186 C232.080513,21.7787726 237.900435,27.2412094 237.837513,30.8465427 C237.733876,36.7775772 218.403474,37.4047036 218.403474,37.4047036 C218.431233,38.1910944 218.574104,38.9613013 218.749915,39.6638301 C220.593902,46.5077841 227.868805,49.523876 234.434539,48.581899 L234.434539,48.581899 C236.862591,48.3887956 238.979733,47.2684278 239.732207,46.8263128 C241.096506,45.7761979 242.698798,43.6211634 240.872207,39.8142668 C240.872207,39.8142668 239.305078,37.3495312 241.536961,36.4792783 C242.151746,36.2394622 242.974175,36.8305427 243.742565,37.8905887 C241.870448,32.704014 239.950954,27.1168875 239.770331,25.1284737 C239.628571,23.5693013 241.647629,23.1669105 243.572305,23.6715542 C244.971396,18.4452553 247.572668,16.5583588 255.776227,15.9841979 Z M17.2220477,5.65687833 C20.7723334,5.65687833 23.9136256,9.81320017 25.4178334,13.1143496 L25.4178334,13.1143496 L25.6713723,13.7341197 C27.1903853,12.3139818 28.238223,10.4910852 29.0750866,8.42947603 C30.0807295,5.95076339 34.3412944,7.17743006 33.3389827,9.64731511 C32.0794308,12.7502117 29.9959697,15.6405105 27.2936516,17.6977059 L27.2936516,17.6977059 L27.3093594,17.7373223 C27.5627211,18.3835347 40.1136215,50.7017629 16.6772165,52.2231312 C0.0761515572,53.3008324 -0.982419871,32.9753151 0.463677531,21.1503956 C2.31802818,5.98901626 14.609671,6.62239557 14.609671,6.62239557 C15.413223,5.98129213 16.2915412,5.65687833 17.2220477,5.65687833 Z M78.0033314,16.0224875 C77.7346171,13.6077749 83.0826236,12.3682347 83.8795132,14.5468094 C84.0172016,14.9286025 98.9245522,41.8093381 101.838585,41.2484186 C103.503429,40.9280507 95.7503184,21.3146255 97.8230457,19.4442806 C98.5248119,18.8109013 101.029851,18.6030852 101.513611,19.3026714 C105.1035,24.4943956 108.60789,44.3038668 107.231007,50.1620737 C106.806098,51.8922806 103.406085,52.6492461 102.05363,51.7845105 C95.5030717,47.6410622 83.8784029,24.3645565 83.7840197,24.1497519 C84.8759029,37.1204186 86.8368509,40.4572461 87.6911106,49.3572921 C87.9405782,51.9592232 82.5625912,52.7665795 82.0569938,50.1054301 C80.5601886,42.2304875 79.0378444,24.8662576 78.0033314,16.0224875 Z M227.311056,5.95021167 C228.963686,4.16703925 232.265615,7.66864845 230.806192,10.5405565 C227.247024,17.5430393 207.449517,14.3069933 207.114179,14.2459358 C208.178303,21.4687404 208.738679,44.1446025 208.864894,48.7603266 C208.915972,51.027545 203.265199,51.517476 203.206348,49.3411082 C202.816231,34.3246484 202.859166,28.3619818 201.281303,13.3341197 C200.058764,13.0159588 196.796809,12.4429013 193.465641,11.9809243 C193.852426,26.3437749 195.075705,29.9774301 195.888881,44.3244645 C196.059141,46.9057979 190.406147,47.4873151 190.250322,44.9262117 C189.421231,30.6144875 188.222751,26.9918668 187.824491,12.6746255 C183.637212,13.4146714 179.905563,14.7722806 181.38016,17.1189473 C183.797478,21.0247864 173.079998,23.421476 173.921673,15.7944416 C174.183725,13.3021197 176.42116,11.2427174 178.547556,10.2165105 C182.949511,8.07986684 189.120686,6.42028063 198.015647,8.08428063 C202.344316,8.89384385 220.039115,13.7957289 227.311056,5.95021167 Z M170.928988,46.0911956 C175.436429,43.1265979 166.805741,34.5057243 150.13102,35.1700002 C150.13102,35.1700002 151.391683,46.9460002 153.324501,50.0080691 C157.05541,49.9186898 167.791027,48.1660461 170.928988,46.0911956 Z M11.4128593,12.2613841 C4.98185286,11.6850163 1.41083987,45.5149013 15.5283334,45.7054301 C29.7550152,45.8970622 23.8532944,24.191499 22.5744957,20.309568 C21.3963723,20.9256599 16.3015347,22.7787174 13.3945347,18.7993151 C11.5183464,16.3673151 11.4128593,12.2613841 11.4128593,12.2613841 Z M178.129198,25.2812278 C177.474068,23.7257335 182.900542,22.2485841 183.684478,24.1170898 C184.827439,26.9172737 187.248828,41.3860553 185.14501,42.716814 C183.877685,43.5197565 181.812731,42.8632048 181.292698,41.3834806 C180.958101,40.3565381 178.877971,27.0813197 178.129198,25.2812278 Z M135.416507,28.1759772 C134.104397,26.2971726 126.179916,27.7699082 124.747884,30.6252645 L124.747884,30.6252645 L124.753806,30.5590576 C123.864754,31.9920691 123.620098,33.8190117 123.770371,35.6904599 C123.875118,35.650368 136.745644,30.0797933 135.416507,28.1759772 Z M263.763629,23.8690714 C263.734759,20.7838301 255.005246,20.8404737 249.891532,22.7501749 C249.891532,22.7501749 245.743857,24.0916002 249.685,35.4453473 C249.987396,35.5987266 263.839876,32.0448875 263.763629,23.8690714 Z M50.5261113,26.5973473 C46.9858191,21.3975312 37.3620723,22.6668645 37.4527542,24.5405197 C37.5308516,26.0754163 39.8419425,33.2184048 40.1247217,34.9272783 C40.3501308,34.7555082 52.4844684,29.474037 50.5261113,26.5973473 Z M232.110493,30.1215772 C231.452772,27.9297611 223.460558,26.875968 221.205357,29.1461289 C221.21424,29.1262668 221.222753,29.1049335 221.231636,29.0850714 C219.937292,30.1712324 219.131889,31.8315542 218.688474,33.6562898 C218.800623,33.6507726 232.776727,32.3417151 232.110493,30.1215772 Z M71.6967996,31.8791864 C71.3085334,26.8437841 69.1969425,14.8077381 66.3680399,18.178037 C66.3591568,18.1912783 66.3502736,18.2041519 66.3413905,18.2184967 C65.3868256,19.7195542 63.9029749,30.0040599 63.5757801,32.5118301 C63.9736697,32.3205657 71.8359684,31.8931634 71.6967996,31.8791864 Z M162.284975,18.8485289 C163.078163,15.6525749 159.585248,14.1261381 156.411384,14.392437 C152.104553,14.754368 148.422131,16.0645289 148.312572,17.3754255 C148.294436,17.4250806 147.862124,19.4966209 149.318215,29.240437 C153.52067,27.9872875 161.470319,22.0249887 162.284975,18.8485289 Z M21.3923009,16.7057059 C21.1805866,16.1352232 18.6141061,9.49467144 16.3015347,12.1039588 C15.701184,12.7807404 15.7859438,14.0250622 16.0194957,15.0806944 C16.3415087,16.5398209 17.2927425,17.4648783 17.8068529,17.6616599 C18.4679048,17.9147174 19.8196191,17.9117749 21.3923009,16.7057059 Z M103.701078,1.22910822 C103.329838,-0.0873055754 109.389604,-0.703397529 109.934065,1.22910822 C110.537007,3.37053351 111.832461,5.60428063 111.238033,7.74828063 C110.619916,9.9761427 105.04613,8.27720017 104.820351,6.40979787 C104.553487,4.20216569 104.30365,3.37053351 103.701078,1.22910822 Z" id="Oranjebitter"></path>
            </g>
        </g>
    </g>
</svg>